<svg width="336" height="304" viewBox="0 0 336 304" fill="none" xmlns="http://www.w3.org/2000/svg">
<g clip-path="url(#clip0_2_121)">
<path d="M0.675649 249.836C3.6088 248.4 4.854 244.589 8.03619 243.595C11.3014 242.574 14.9263 244.589 17.9148 242.38C19.2153 241.414 20.1838 239.812 21.7611 239.232C23.1447 238.735 24.5836 239.287 25.9118 239.702C27.0463 240.061 28.1808 240.392 29.3153 240.751C33.8811 242.159 38.4192 243.54 42.9849 244.948C48.1594 246.522 53.3063 248.124 58.4808 249.698C58.9789 249.864 59.2002 249.063 58.7021 248.897C49.2386 245.998 39.8027 243.098 30.3392 240.199C28.1255 239.536 25.8288 238.514 23.5321 238.238C21.9271 238.045 20.6543 238.68 19.5197 239.729C17.9425 241.193 16.7526 242.546 14.4559 242.656C12.5466 242.767 10.6649 242.27 8.75563 242.574C4.82632 243.181 3.60879 247.461 0.288249 249.091C-0.209832 249.367 0.205238 250.085 0.675649 249.836Z" fill="#E8E8E8"/>
<path d="M50.4007 246.357C52.3654 246.854 53.915 244.893 55.6859 244.314C58.0656 243.513 60.6114 243.844 62.7697 245.087C63.2402 245.363 63.6552 244.645 63.1848 244.369C61.3585 243.292 59.2832 242.85 57.1802 243.126C56.267 243.237 55.4092 243.485 54.5791 243.844C53.3892 244.369 52.0057 245.888 50.6221 245.556C50.0963 245.418 49.875 246.219 50.4007 246.357Z" fill="#E8E8E8"/>
<path d="M71.7354 244.286C69.8814 242.767 68.1105 241.138 66.4502 239.398C65.6754 238.597 64.9283 237.741 64.2088 236.885C63.7938 236.388 63.3787 235.891 62.9913 235.394C62.7146 235.035 62.4379 234.676 62.1888 234.317C61.7461 233.875 61.7461 233.323 62.2165 232.715C62.5486 232.853 63.0743 232.522 62.7976 232.136C61.1097 229.871 59.8644 227.386 59.062 224.68C58.896 224.845 58.7299 225.011 58.5639 225.177C59.477 225.425 60.1412 225.895 60.6392 226.668C60.9159 227.11 61.6354 226.723 61.3587 226.254C57.2357 219.129 53.8598 211.618 51.314 203.803C51.0927 203.941 50.8436 204.079 50.6223 204.217C62.2165 215.595 67.474 231.418 77.242 244.148C77.574 244.562 78.2935 244.148 77.9614 243.734C68.1658 230.948 62.8529 215.07 51.2034 203.638C50.9267 203.361 50.3732 203.638 50.5116 204.052C53.085 211.949 56.4609 219.516 60.6392 226.696C60.8883 226.557 61.1097 226.419 61.3587 226.281C60.7223 225.315 59.8921 224.68 58.7853 224.404C58.4809 224.321 58.1765 224.597 58.2872 224.901C59.1173 227.662 60.3902 230.23 62.1058 232.55C62.2995 232.356 62.4932 232.163 62.6869 231.97C61.9121 231.611 61.0543 231.97 60.8606 232.881C60.6116 234.179 62.1888 235.615 62.9083 236.526C65.371 239.591 68.1658 242.38 71.2096 244.866C71.5694 245.197 72.1505 244.617 71.7354 244.286Z" fill="#E8E8E8"/>
<path d="M68.83 227.027C63.7385 219.433 59.6155 211.287 56.5716 202.671C56.4886 202.837 56.3779 203.002 56.2949 203.168C57.2358 202.947 58.0382 203.306 58.564 204.135C58.8407 204.604 59.5048 204.19 59.2834 203.72C54.9944 194.47 50.6223 184.832 50.9267 174.421C50.6777 174.504 50.401 174.56 50.1519 174.642C57.5401 189.83 64.5686 205.212 71.2097 220.731C71.4034 221.173 72.1229 220.841 71.9568 220.399C70.85 217.086 69.7708 213.744 68.664 210.431C68.1382 208.801 67.5848 207.2 67.059 205.571C66.6993 204.494 65.9245 202.146 67.4741 201.566C67.3081 201.511 67.1697 201.428 67.0037 201.373C68.996 205.267 70.9607 209.16 72.953 213.054C73.202 213.523 73.9215 213.109 73.6725 212.64C71.5141 208.415 70.5179 203.748 70.7116 198.998C70.4349 199.026 70.1582 199.081 69.9092 199.109C75.6648 213.385 82.3335 227.303 89.8324 240.751C90.0815 241.221 90.8009 240.806 90.5519 240.337C83.0807 226.944 76.4396 213.109 70.7116 198.888C70.5456 198.474 69.9092 198.501 69.9092 198.998C69.7155 203.886 70.767 208.663 72.9807 213.054C73.2297 212.916 73.4511 212.778 73.7001 212.64C71.7078 208.746 69.7431 204.853 67.7508 200.959C67.6678 200.821 67.4464 200.71 67.2804 200.766C64.5133 201.787 66.2842 205.736 66.893 207.586C68.3319 211.922 69.7431 216.285 71.182 220.62C71.4311 220.51 71.6801 220.399 71.9292 220.289C65.2881 204.77 58.2596 189.388 50.8714 174.201C50.6777 173.814 50.0966 174.035 50.0966 174.421C49.7645 184.97 54.2196 194.773 58.564 204.135C58.813 203.996 59.0344 203.858 59.2834 203.72C58.564 202.588 57.4018 202.091 56.0736 202.367C55.8522 202.422 55.7138 202.671 55.7968 202.864C58.8684 211.535 63.019 219.764 68.1382 227.413C68.4149 227.883 69.1344 227.469 68.83 227.027Z" fill="#E8E8E8"/>
<path d="M14.1513 280.406C23.7256 275.794 33.8256 271.1 44.7557 272.204C49.9302 272.729 54.9387 274.22 60.0855 274.883C62.6866 275.214 65.3154 275.352 67.9165 275.049C70.3515 274.745 72.6483 273.861 75.028 273.336C78.0995 272.646 80.8943 273.364 83.8551 274.192C86.2902 274.855 88.6975 275.408 91.2156 274.828C91.7414 274.717 91.52 273.916 90.9943 274.027C85.9581 275.214 81.2263 271.597 76.1348 272.315C73.6167 272.674 71.2647 273.668 68.7743 274.11C66.1455 274.551 63.4614 274.496 60.805 274.165C55.5751 273.557 50.4836 272.011 45.2261 271.431C40.0516 270.851 34.9324 271.514 29.9793 272.95C24.3343 274.607 18.9938 277.147 13.7363 279.688C13.2382 279.909 13.6809 280.627 14.1513 280.406Z" fill="#E8E8E8"/>
<path d="M70.3242 303.298C73.5617 301.917 76.7439 300.398 79.8154 298.686C81.4203 297.775 82.9976 296.836 84.5749 295.842C85.9861 294.93 87.3973 293.633 88.9469 292.97C90.6902 292.252 93.319 293.605 95.0623 294.13C96.9162 294.71 98.7702 295.262 100.596 295.842C104.387 297.002 108.178 298.161 111.942 299.321C112.44 299.487 112.661 298.686 112.163 298.52C108.123 297.278 104.055 296.035 100.015 294.792C98.0784 294.185 96.1414 293.605 94.2044 292.997C92.7102 292.528 90.8286 291.562 89.2513 291.948C87.7847 292.307 86.4565 293.577 85.2113 294.406C83.6064 295.455 81.9461 296.477 80.2858 297.443C76.9376 299.349 73.4787 301.061 69.9091 302.552C69.411 302.773 69.8538 303.491 70.3242 303.298Z" fill="#E8E8E8"/>
<path d="M104.747 304.154C106.85 303.105 108.953 302.028 111.056 300.979C112.993 299.984 115.068 298.659 117.282 298.466C119.523 298.245 121.267 299.708 123.204 300.564C124.836 301.282 126.607 301.696 128.378 301.807C132.529 302.028 136.403 299.957 140.526 300.178C143.819 300.371 147.139 303.077 150.377 301.365C150.847 301.117 150.432 300.399 149.962 300.647C147.942 301.724 145.756 300.675 143.763 300.04C142.048 299.487 140.387 299.239 138.589 299.432C134.327 299.874 130.426 301.669 126.054 300.647C122.429 299.819 119.662 296.809 115.76 297.941C113.961 298.466 112.274 299.46 110.613 300.288C108.51 301.337 106.407 302.414 104.304 303.464C103.862 303.685 104.277 304.403 104.747 304.154Z" fill="#E8E8E8"/>
<path d="M120.907 298.162C119.191 296.671 117.642 295.014 116.369 293.108C115.788 292.252 115.262 291.341 114.764 290.43C114.515 289.96 114.293 289.491 114.1 289.021C113.934 288.635 113.768 288.276 113.629 287.889C113.38 287.475 113.491 287.088 113.961 286.729C114.21 286.619 114.46 286.508 114.709 286.398C111.665 281.924 109.755 276.843 109.119 271.486C108.87 271.597 108.649 271.68 108.4 271.79C108.898 272.425 109.396 273.06 109.921 273.723C110.226 274.11 110.807 273.613 110.586 273.226C105.771 264.638 103.197 254.973 103.142 245.142C102.893 245.253 102.672 245.335 102.423 245.446C104.304 246.965 105.743 248.842 106.629 251.079C106.878 250.969 107.127 250.858 107.376 250.748C105.217 246.191 104.775 241.055 106.047 236.195C105.771 236.195 105.522 236.195 105.245 236.195C110.918 252.405 116.563 268.587 122.235 284.796C122.401 285.293 123.204 285.072 123.038 284.575C120.187 276.264 118.776 267.537 118.859 258.728C118.61 258.839 118.389 258.922 118.14 259.032C119.828 260.551 120.879 262.456 121.267 264.693C121.35 265.163 122.097 265.052 122.069 264.583C121.986 262.898 121.875 261.186 121.792 259.502C121.571 259.612 121.377 259.75 121.156 259.861C122.623 260.799 122.899 263.285 123.37 264.831C123.868 266.488 124.366 268.145 124.892 269.829C125.915 273.254 126.967 276.65 127.991 280.074C130.066 286.895 132.141 293.743 134.217 300.564C134.383 301.061 135.185 300.868 135.019 300.343C132.778 292.998 130.564 285.625 128.323 278.279C127.244 274.689 126.137 271.1 125.058 267.51C124.504 265.66 123.951 263.837 123.397 261.987C123.038 260.855 122.623 259.833 121.599 259.17C121.35 259.005 120.962 259.225 120.962 259.529C121.045 261.214 121.156 262.926 121.239 264.61C121.516 264.583 121.792 264.527 122.041 264.5C121.654 262.125 120.492 260.054 118.693 258.452C118.416 258.204 118.001 258.369 117.974 258.756C117.891 267.62 119.302 276.429 122.18 284.824C122.457 284.741 122.706 284.686 122.982 284.603C117.31 268.393 111.665 252.211 105.992 236.002C105.854 235.643 105.3 235.588 105.19 236.002C103.861 241.11 104.36 246.44 106.601 251.19C106.795 251.604 107.542 251.3 107.348 250.858C106.407 248.483 104.941 246.468 102.921 244.866C102.644 244.645 102.201 244.783 102.201 245.17C102.257 255.139 104.858 264.969 109.755 273.668C109.977 273.502 110.198 273.336 110.42 273.171C109.921 272.536 109.423 271.9 108.898 271.238C108.676 270.962 108.15 271.182 108.178 271.541C108.815 277.064 110.752 282.283 113.878 286.867C114.155 287.254 114.709 287.005 114.626 286.536C114.487 285.763 113.574 285.487 112.938 285.956C111.775 286.785 112.91 288.745 113.325 289.684C114.902 293.191 117.254 296.256 120.16 298.769C120.741 299.073 121.322 298.493 120.907 298.162Z" fill="#E8E8E8"/>
<path d="M91.9627 236.223C91.603 231.031 101.039 234.013 103.668 234.511C107.984 235.311 112.273 236.112 116.59 236.913C125.196 238.515 133.829 240.116 142.435 241.718C142.961 241.828 143.182 241.028 142.656 240.917C132.778 239.067 122.927 237.244 113.048 235.394C108.206 234.483 103.363 233.572 98.5208 232.688C96.7775 232.357 94.7575 231.998 93.1249 232.909C91.8797 233.572 91.0496 234.787 91.1603 236.223C91.1603 236.747 92.0181 236.747 91.9627 236.223Z" fill="#E8E8E8"/>
<path d="M136.707 240.807C139.585 241.11 141.356 238.377 143.597 237.051C145.507 235.946 147.167 236.803 149.132 237.189C151.318 237.631 153.559 237.686 155.773 237.41C156.298 237.355 156.298 236.526 155.773 236.582C153.282 236.885 150.792 236.775 148.357 236.167C146.89 235.781 145.562 235.311 144.096 235.891C141.494 236.885 139.723 240.31 136.707 239.978C136.182 239.923 136.182 240.751 136.707 240.807Z" fill="#E8E8E8"/>
<path d="M189.476 293.909C196.117 291.589 202.814 289.27 209.676 287.613C216.843 285.901 224.065 285.21 231.426 285.431C238.703 285.652 245.925 286.481 253.175 287.143C260.453 287.834 267.73 288.496 275.008 289.187C283.365 289.96 291.749 290.733 300.106 291.534C300.631 291.589 300.631 290.761 300.106 290.706C285.191 289.325 270.276 287.944 255.334 286.536C240.972 285.21 226.528 283.25 212.222 286.204C204.363 287.834 196.781 290.485 189.227 293.108C188.757 293.274 188.978 294.074 189.476 293.909Z" fill="#E8E8E8"/>
<path d="M218.725 266.736C223.678 265.687 228.326 263.616 233.003 261.738C238.011 259.75 243.075 258.369 248.443 257.9C253.867 257.43 259.318 257.707 264.714 258.038C270.138 258.369 275.561 258.756 281.012 259.142C287.349 259.612 293.714 260.137 300.05 260.689C300.576 260.744 300.576 259.916 300.05 259.86C288.816 258.866 277.581 258.01 266.319 257.292C255.61 256.602 245.068 256.326 234.857 260.109C229.433 262.125 224.176 264.693 218.476 265.908C218.005 266.046 218.199 266.847 218.725 266.736Z" fill="#E8E8E8"/>
<path d="M282.507 234.897C286.464 231.887 290.642 228.932 295.069 226.668C297.228 225.563 299.552 224.68 301.987 224.486C304.616 224.265 307.245 224.79 309.818 225.122C315.048 225.757 320.306 226.143 325.563 226.475C329.05 226.696 333.477 227.193 335.94 224.155C336.272 223.741 335.691 223.161 335.359 223.575C332.564 227.027 326.67 225.729 322.851 225.48C317.594 225.122 312.392 224.624 307.162 223.962C304.92 223.686 302.707 223.465 300.465 223.879C298.252 224.265 296.176 225.149 294.212 226.198C289.95 228.463 285.91 231.279 282.064 234.207C281.677 234.51 282.092 235.228 282.507 234.897Z" fill="#E8E8E8"/>
<path d="M130.177 230.341C134.106 227.386 138.063 224.459 141.992 221.504C145.756 218.687 149.27 215.733 154.195 215.484C158.844 215.263 163.604 215.788 168.225 216.174C173.206 216.589 178.159 217.141 183.084 217.831C187.235 218.411 192.188 219.958 196.117 217.804C196.588 217.555 196.173 216.837 195.702 217.086C193.682 218.19 191.441 218.19 189.2 217.914C186.792 217.61 184.385 217.196 181.977 216.865C177.329 216.23 172.652 215.705 167.948 215.318C163.327 214.932 158.54 214.379 153.919 214.656C149.63 214.904 146.448 217.113 143.099 219.626C138.644 222.94 134.217 226.281 129.762 229.595C129.347 229.954 129.762 230.672 130.177 230.341Z" fill="#E8E8E8"/>
<path d="M285.855 259.529C286.104 257.706 286.464 255.939 286.99 254.172C287.239 253.343 287.488 252.515 287.82 251.686C288.014 251.189 288.539 250.361 289.259 250.554C289.619 250.665 289.785 251.907 289.812 252.156C289.868 252.598 290.476 252.736 290.615 252.266C291.915 248.041 293.41 243.402 297.394 240.944C297.173 240.834 296.979 240.696 296.758 240.585C296.758 241.276 296.73 241.994 296.73 242.684C296.73 243.071 297.311 243.264 297.505 242.905C299.968 237.796 302.652 232.439 307.633 229.346C307.439 229.181 307.217 229.043 307.024 228.877C304.533 235.311 301.628 241.58 298.335 247.655C298.114 248.041 298.667 248.538 298.999 248.152C300.853 245.943 302.735 243.734 305.17 242.132C304.976 241.939 304.782 241.745 304.589 241.552C301.517 248.014 298.169 254.31 294.489 260.44C294.212 260.91 294.931 261.324 295.208 260.854C298.861 254.724 302.237 248.428 305.308 241.966C305.474 241.635 305.114 241.138 304.727 241.386C302.237 243.043 300.3 245.28 298.39 247.544C298.612 247.71 298.833 247.876 299.054 248.041C302.375 241.911 305.308 235.587 307.826 229.07C307.965 228.739 307.494 228.435 307.217 228.601C302.098 231.777 299.331 237.217 296.785 242.463C297.034 242.546 297.311 242.601 297.56 242.684C297.56 241.994 297.588 241.276 297.588 240.585C297.588 240.282 297.228 240.061 296.951 240.226C292.801 242.795 291.168 247.6 289.812 252.045C290.089 252.073 290.366 252.128 290.615 252.156C290.476 250.748 289.203 248.345 287.654 250.14C286.879 251.051 286.575 252.542 286.243 253.675C285.689 255.497 285.302 257.375 285.025 259.28C284.997 259.833 285.772 260.054 285.855 259.529Z" fill="#E8E8E8"/>
<path d="M92.5165 212.916C94.6749 211.756 96.8609 210.596 99.2406 209.961C101.759 209.299 104.249 209.52 106.767 209.851C111.776 210.514 116.784 211.176 121.765 211.839C122.291 211.922 122.291 211.094 121.765 211.011C116.424 210.293 111.056 209.52 105.716 208.884C103.253 208.581 100.901 208.581 98.5212 209.271C96.2521 209.934 94.1491 211.066 92.0738 212.171C91.6034 212.474 92.0461 213.165 92.5165 212.916Z" fill="#E8E8E8"/>
<path d="M260.84 25.6079C262.833 23.9234 265.627 24.2548 267.813 25.3318C269.474 26.1326 270.83 27.7618 272.767 27.8447C274.565 27.8999 276.059 26.6849 277.581 25.8841C278.605 25.3594 279.657 25.0004 280.819 25.2489C282.064 25.4975 283.143 26.2154 284.278 26.7125C288.013 28.3417 290.504 26.0774 293.658 24.2824C294.544 23.7854 295.485 23.3435 296.508 23.2607C297.809 23.1502 298.971 23.7301 300.133 24.2272C301.96 25.0004 303.343 25.3042 305.197 24.5586C307.107 23.813 308.656 23.9234 310.565 24.6138C311.783 25.0556 312.945 25.6079 314.218 25.8841C316.127 26.3259 318.175 26.2154 319.614 24.7519C320.001 24.3653 319.393 23.7854 319.033 24.172C317.179 26.0498 314.356 25.1661 312.226 24.3377C310.067 23.5092 307.854 22.6256 305.557 23.4816C304.118 24.0339 303.15 24.4205 301.6 23.8958C300.548 23.5368 299.58 22.9569 298.501 22.6532C296.868 22.1561 295.346 22.4323 293.852 23.1779C292.136 24.0339 290.642 25.387 288.844 26.105C286.464 27.0439 284.61 25.8012 282.451 24.8899C280.874 24.2272 279.38 24.1167 277.803 24.8071C275.893 25.6631 274.039 27.5409 271.798 26.7401C270.608 26.3259 269.667 25.3594 268.588 24.7519C267.675 24.2548 266.679 23.8958 265.655 23.7025C263.69 23.3435 261.781 23.6749 260.231 24.9728C259.844 25.387 260.453 25.9669 260.84 25.6079Z" fill="#E8E8E8"/>
<path d="M270.802 44.4681C271.328 44.4681 271.328 43.6396 270.802 43.6396C270.276 43.6396 270.276 44.4681 270.802 44.4681Z" fill="#E8E8E8"/>
<path d="M276.336 47.4784C277.637 45.1312 280.708 46.2634 282.617 47.0366C284.527 47.8098 286.242 48.2792 288.262 47.5888C289.923 47.0089 291.417 45.9044 293.132 45.5178C295.512 44.9655 296.868 46.9813 299.026 47.4508C302.402 48.1964 305.806 44.4408 308.988 46.0148C309.874 46.4567 310.482 47.0366 311.534 46.9537C312.502 46.8985 313.388 46.429 314.329 46.2081C316.957 45.6006 319.697 46.0701 322.049 47.3679C322.519 47.6165 322.934 46.8985 322.464 46.65C320.97 45.8215 319.365 45.3245 317.677 45.1588C316.819 45.0759 315.934 45.1036 315.076 45.2416C314.052 45.3797 313.111 45.8215 312.115 46.0148C310.759 46.2634 310.178 45.6006 309.071 45.1312C308.518 44.9103 307.909 44.7998 307.328 44.8274C305.944 44.8826 304.616 45.4625 303.343 45.932C301.711 46.5395 299.967 47.1194 298.307 46.291C296.896 45.6006 295.789 44.5513 294.129 44.5513C290.697 44.5789 288.29 47.865 284.665 46.8709C281.981 46.1253 277.664 43.5019 275.672 47.0366C275.368 47.5336 276.087 47.9478 276.336 47.4784Z" fill="#E8E8E8"/>
<path d="M249.495 80.5328C251.46 78.9864 253.701 79.0692 255.86 80.0633C257.049 80.6156 258.322 81.1403 259.567 80.3947C260.287 79.9529 260.757 79.2625 261.615 79.014C262.528 78.7378 263.497 78.9311 264.382 79.1521C265.959 79.5387 267.481 80.229 269.114 80.3395C271.051 80.4775 272.822 79.6491 274.704 79.4558C276.724 79.2625 278.135 80.4775 280.016 80.7537C281.843 81.0022 283.254 79.5386 285.08 79.8148C287.294 80.1462 289.48 80.8917 291.666 81.444C292.192 81.5821 292.413 80.7813 291.887 80.6432C289.591 80.0633 287.211 79.1797 284.859 78.9311C282.867 78.7102 281.428 80.3395 279.435 79.7319C277.581 79.1797 276.253 78.3788 274.261 78.655C272.13 78.9587 270.193 79.7872 268.007 79.3177C266.319 78.9587 264.687 78.1579 262.943 78.0475C262.307 78.0199 261.643 78.0751 261.034 78.3236C260.259 78.6274 259.844 79.2625 259.125 79.6767C257.464 80.6432 255.223 78.5998 253.452 78.4617C251.764 78.3236 250.215 78.9035 248.886 79.9252C248.471 80.2842 249.08 80.8641 249.495 80.5328Z" fill="#E8E8E8"/>
<path d="M90.8562 20.2781C91.382 20.2781 91.382 19.4497 90.8562 19.4497C90.3305 19.4497 90.3305 20.2781 90.8562 20.2781Z" fill="#E8E8E8"/>
<path d="M93.291 20.9131C93.789 18.4554 97.0542 20.0294 98.2441 20.775C99.6 21.6311 101.039 22.4043 102.699 21.9348C104.498 21.4101 105.715 19.8637 107.708 19.7533C109.589 19.6704 111.416 20.5265 113.187 21.0788C114.708 21.5482 116.313 21.8796 117.891 21.493C119.745 21.0512 121.322 19.7533 123.204 19.4219C126.911 18.7868 130.26 21.7967 134.023 20.6369C134.521 20.4713 134.327 19.6704 133.802 19.8361C129.872 21.0788 126.137 17.5994 122.152 18.842C120.104 19.4771 118.389 20.9131 116.147 20.8302C114.072 20.7474 112.19 19.7533 110.226 19.2562C108.676 18.8696 107.099 18.7592 105.605 19.4495C104.747 19.8361 104 20.4712 103.142 20.8855C101.731 21.5482 100.541 21.1616 99.2679 20.4436C97.8844 19.6428 96.6945 18.7039 95.0066 18.842C93.8167 18.9248 92.7652 19.5324 92.5438 20.7474C92.4055 21.2168 93.2079 21.4378 93.291 20.9131Z" fill="#E8E8E8"/>
<path d="M95.809 182.153C99.1019 180.773 102.422 183.23 105.743 183.396C107.459 183.479 109.119 183.065 110.807 182.733C112.937 182.319 114.764 182.291 116.811 183.147C118.057 183.672 119.191 184.003 120.464 183.506C121.183 183.23 121.792 182.761 122.512 182.512C123.314 182.236 124.144 182.181 125.002 182.181C127.963 182.236 130.924 183.258 133.746 181.932C134.217 181.711 133.802 180.994 133.331 181.214C130.315 182.623 126.967 181.076 123.785 181.408C122.263 181.573 121.266 182.457 119.855 182.871C118.167 183.368 116.507 181.932 114.847 181.684C111.277 181.132 107.901 183.12 104.304 182.402C101.426 181.822 98.5208 180.137 95.5876 181.38C95.1172 181.573 95.3386 182.374 95.809 182.153Z" fill="#E8E8E8"/>
<path d="M35.9839 141.478C38.3985 141.478 40.3559 139.524 40.3559 137.115C40.3559 134.705 38.3985 132.751 35.9839 132.751C33.5693 132.751 31.6118 134.705 31.6118 137.115C31.6118 139.524 33.5693 141.478 35.9839 141.478Z" fill="#111111"/>
<path d="M290.476 111.488C292.173 111.488 293.548 110.116 293.548 108.423C293.548 106.73 292.173 105.358 290.476 105.358C288.78 105.358 287.405 106.73 287.405 108.423C287.405 110.116 288.78 111.488 290.476 111.488Z" fill="#0F1010"/>
<path d="M262.833 4.70356C264.086 4.70356 265.102 3.68976 265.102 2.43918C265.102 1.1886 264.086 0.174805 262.833 0.174805C261.579 0.174805 260.563 1.1886 260.563 2.43918C260.563 3.68976 261.579 4.70356 262.833 4.70356Z" fill="#0E0F0F"/>
<path d="M162.884 201.069C164.443 201.069 165.706 199.808 165.706 198.253C165.706 196.697 164.443 195.436 162.884 195.436C161.325 195.436 160.062 196.697 160.062 198.253C160.062 199.808 161.325 201.069 162.884 201.069Z" fill="#121212"/>
<path d="M32.7742 41.0995C34.5622 41.0995 36.0117 39.6529 36.0117 37.8686C36.0117 36.0842 34.5622 34.6377 32.7742 34.6377C30.9861 34.6377 29.5366 36.0842 29.5366 37.8686C29.5366 39.6529 30.9861 41.0995 32.7742 41.0995Z" fill="#0B0B0B"/>
<path d="M144.4 154.456C145.424 154.456 146.254 153.628 146.254 152.606C146.254 151.584 145.424 150.756 144.4 150.756C143.376 150.756 142.546 151.584 142.546 152.606C142.546 153.628 143.376 154.456 144.4 154.456Z" fill="#0A0A0A"/>
<path d="M319.392 170.197C320.951 170.197 322.215 168.936 322.215 167.38C322.215 165.825 320.951 164.563 319.392 164.563C317.833 164.563 316.57 165.825 316.57 167.38C316.57 168.936 317.833 170.197 319.392 170.197Z" fill="#0B0B0B"/>
<path d="M11.7441 216.755C12.9056 216.755 13.8471 215.815 13.8471 214.656C13.8471 213.497 12.9056 212.557 11.7441 212.557C10.5827 212.557 9.64111 213.497 9.64111 214.656C9.64111 215.815 10.5827 216.755 11.7441 216.755Z" fill="#0A3871"/>
<path d="M97.7464 53.6637C95.339 58.5514 92.904 63.4392 90.4966 68.3269C100.458 81.6647 110.42 94.9748 120.381 108.313C122.955 104.419 125.501 100.442 128.074 96.4383C134.134 86.939 139.917 77.5501 145.452 68.2441C143.57 63.4668 141.661 58.6619 139.779 53.8846C138.561 53.2495 137.344 52.642 136.126 52.0068C124.338 52.0345 112.551 52.0621 100.79 52.0897C99.7388 52.642 98.7426 53.1666 97.7464 53.6637Z" fill="#42C7B7"/>
<path d="M90.8286 68.548C92.9317 63.9364 95.09 59.3524 97.3037 54.796C97.5251 54.3266 96.8333 53.8848 96.5843 54.3818C94.3706 58.9382 92.2122 63.5222 90.1092 68.1338C89.8878 68.6032 90.6073 69.045 90.8286 68.548Z" fill="black"/>
<path d="M90.2752 69.0448C100.015 82.3825 109.949 95.5546 120.077 108.616C120.409 109.03 120.99 108.45 120.658 108.036C110.586 95.0299 100.707 81.9131 90.9946 68.6306C90.6903 68.2163 89.9708 68.6306 90.2752 69.0448Z" fill="black"/>
<path d="M97.4971 54.3267C98.6592 53.7192 99.7938 53.0841 100.956 52.4765C101.426 52.228 101.011 51.51 100.541 51.7586C99.3787 52.3661 98.2442 53.0012 97.082 53.6087C96.5839 53.8849 97.0266 54.5752 97.4971 54.3267Z" fill="black"/>
<path d="M101.648 52.5316C110.282 52.5316 118.943 52.5316 127.576 52.5316C128.102 52.5316 128.102 51.7031 127.576 51.7031C118.943 51.7031 110.282 51.7031 101.648 51.7031C101.122 51.7031 101.122 52.5316 101.648 52.5316Z" fill="black"/>
<path d="M145.839 68.161C144.095 63.5494 142.297 58.9931 140.443 54.4091C140.249 53.912 139.447 54.1329 139.64 54.63C141.494 59.1864 143.293 63.7703 145.036 68.3819C145.23 68.879 146.032 68.6581 145.839 68.161Z" fill="black"/>
<path d="M144.926 68.5756C136.818 81.8305 128.545 95.0025 120.105 108.064C119.8 108.506 120.52 108.92 120.824 108.478C129.264 95.4168 137.538 82.2723 145.645 68.9898C145.922 68.548 145.203 68.1062 144.926 68.5756Z" fill="black"/>
<path d="M139.945 53.5532C138.976 52.9457 138.008 52.3105 137.039 51.703C136.597 51.4269 136.182 52.1172 136.624 52.421C137.593 53.0285 138.561 53.6637 139.53 54.2712C140 54.5749 140.415 53.857 139.945 53.5532Z" fill="black"/>
<path d="M136.099 51.6201C128.876 51.6201 121.654 51.6201 114.46 51.6201C113.934 51.6201 113.934 52.4485 114.46 52.4485C121.682 52.4485 128.904 52.4485 136.099 52.4485C136.624 52.4485 136.624 51.6201 136.099 51.6201Z" fill="black"/>
<path d="M91.1606 68.9622C96.1137 66.8359 101.067 64.7096 106.02 62.5833C106.518 62.3624 106.075 61.672 105.605 61.8653C100.652 63.9916 95.6986 66.1179 90.7455 68.2442C90.2751 68.4651 90.6902 69.1831 91.1606 68.9622Z" fill="black"/>
<path d="M97.6358 54.0778C100.68 54.5473 103.668 55.21 106.629 56.0384C107.155 56.1765 107.376 55.3757 106.85 55.2376C103.89 54.3816 100.901 53.7464 97.8572 53.277C97.3315 53.1942 97.0824 53.995 97.6358 54.0778Z" fill="black"/>
<path d="M106.407 55.9006C107.071 57.9717 107.652 60.0428 108.151 62.1691C108.261 62.6937 109.064 62.4728 108.953 61.9481C108.455 59.8218 107.874 57.7508 107.21 55.6797C107.044 55.1826 106.241 55.3759 106.407 55.9006Z" fill="black"/>
<path d="M107.68 55.9832C115.096 55.9832 122.485 55.9832 129.9 55.9832C130.426 55.9832 130.426 55.1548 129.9 55.1548C122.485 55.1548 115.096 55.1548 107.68 55.1548C107.155 55.1548 107.155 55.9832 107.68 55.9832Z" fill="black"/>
<path d="M129.541 56.1491C129.264 57.6679 128.987 59.2143 128.711 60.7331C128.628 61.2578 129.43 61.4787 129.513 60.954C129.79 59.4352 130.066 57.8888 130.343 56.37C130.426 55.8454 129.624 55.6245 129.541 56.1491Z" fill="black"/>
<path d="M108.594 62.2239C115.069 62.2239 121.544 62.2239 128.046 62.2239C128.572 62.2239 128.572 61.3955 128.046 61.3955C121.571 61.3955 115.096 61.3955 108.594 61.3955C108.068 61.3955 108.068 62.2239 108.594 62.2239Z" fill="black"/>
<path d="M130.703 55.9832C133.719 55.3481 136.707 54.713 139.723 54.0778C140.249 53.9674 140.028 53.1666 139.502 53.277C136.486 53.9122 133.497 54.5473 130.481 55.1824C129.956 55.2929 130.177 56.0937 130.703 55.9832Z" fill="black"/>
<path d="M129.319 61.9758C132.114 62.4176 134.715 63.9916 137.261 65.179C139.973 66.4493 142.657 67.7195 145.368 68.9898C145.839 69.2107 146.282 68.4927 145.784 68.2718C142.906 66.9187 140.056 65.5932 137.178 64.2401C134.743 63.0803 132.225 61.6168 129.541 61.1749C129.015 61.0921 128.793 61.8929 129.319 61.9758Z" fill="black"/>
<path d="M108.843 63.4945C112.44 78.2959 116.009 93.1248 119.607 107.926C119.745 108.451 120.52 108.23 120.409 107.705C116.812 92.9039 113.242 78.0749 109.645 63.2736C109.507 62.749 108.704 62.9699 108.843 63.4945Z" fill="black"/>
<path d="M128.157 64.4885C124.781 78.7375 121.986 93.1522 119.828 107.65C119.745 108.174 120.547 108.395 120.63 107.871C122.789 93.3731 125.583 78.986 128.959 64.7094C129.098 64.1847 128.295 63.9638 128.157 64.4885Z" fill="black"/>
<path d="M128.434 36.8464C129.679 33.6707 130.371 30.3294 130.482 26.9052C130.509 26.3806 129.679 26.3806 129.651 26.9052C129.541 30.2466 128.849 33.5051 127.631 36.6255C127.438 37.1225 128.24 37.3158 128.434 36.8464Z" fill="black"/>
<path d="M134.106 37.399C136.763 34.3891 139.751 31.7381 143.1 29.5013C143.542 29.1976 143.127 28.4796 142.684 28.7834C139.281 31.0477 136.209 33.7539 133.525 36.8191C133.166 37.2057 133.747 37.7856 134.106 37.399Z" fill="black"/>
<path d="M139.557 42.5074C142.989 41.4856 146.531 41.099 150.1 41.3752C150.626 41.4028 150.626 40.5744 150.1 40.5467C146.448 40.2706 142.85 40.6572 139.336 41.7065C138.838 41.8722 139.032 42.673 139.557 42.5074Z" fill="black"/>
<path d="M81.2543 23.1499C81.5864 28.6175 78.5149 33.8366 73.5894 36.2114C73.3127 36.3495 73.3403 36.7637 73.5894 36.9294C78.0998 39.6356 80.1751 44.6062 81.365 49.494C81.5034 50.0186 82.2781 49.7977 82.1675 49.273C80.9223 44.1644 78.7086 39.0005 74.0045 36.2114C74.0045 36.46 74.0045 36.6809 74.0045 36.9294C79.179 34.4165 82.4442 28.866 82.0845 23.1499C82.0568 22.6252 81.2266 22.6252 81.2543 23.1499Z" fill="#E8E8E8"/>
<path d="M81.5588 23.1499C81.1991 28.8936 84.4643 34.4441 89.6388 36.9294C89.6388 36.6809 89.6388 36.46 89.6388 36.2114C84.907 39.0281 82.6933 44.192 81.4481 49.3283C81.3097 49.8529 82.1122 50.0738 82.2506 49.5492C83.4404 44.6338 85.5158 39.6356 90.0538 36.9294C90.3029 36.7913 90.3305 36.3495 90.0538 36.2114C85.1284 33.8366 82.0292 28.6175 82.3612 23.1499C82.4166 22.6252 81.5865 22.6252 81.5588 23.1499Z" fill="#E8E8E8"/>
<path d="M216.29 230.451C217.258 230.037 218.586 229.429 220.108 228.573C222.654 227.165 223.927 226.447 224.702 225.314C225.698 223.823 225.31 223.022 226.611 221.531C226.805 221.283 227.718 220.316 228.908 219.792C230.955 218.936 232.865 219.957 236.047 221.089C238.98 222.139 241.277 222.636 245.87 223.658C247.696 224.072 249.91 224.486 253.12 225.48C254.033 225.756 254.753 226.005 255.251 226.171C255.306 226.75 255.334 228.242 254.365 229.595C253.922 230.202 253.314 230.699 252.345 231.141C250.104 232.19 247.973 231.997 246.174 231.914C242.3 231.749 243.905 232.301 234.774 232.467C232.782 232.494 231.149 232.494 230.014 232.494C228.603 233.461 227.192 234.455 225.753 235.477C223.318 237.244 220.994 239.011 218.78 240.751C217.95 237.327 217.12 233.875 216.29 230.451Z" fill="black"/>
<path d="M204.751 195.104C202.758 196.154 202.537 196.54 195.121 202.836C183.555 212.639 182.282 213.164 171.794 222.304C161.75 231.031 159.868 233.212 157.959 236.084C153.199 243.347 152.148 249.422 151.843 252.376C151.428 256.353 150.875 261.876 154.389 266.239C156.603 268.973 159.481 270.105 160.449 270.464C163.355 271.568 165.734 271.43 170.023 271.127C175.724 270.712 180.068 269.608 181.784 269.138C183.665 268.614 188.037 267.316 193.516 264.61C198.663 262.069 200.877 260.191 207.905 255.469C211.032 253.371 215.653 250.305 221.464 246.771C221.824 244.009 221.52 241.855 221.215 240.502C220.496 237.299 219.029 235.09 217.397 232.66C216.068 230.672 214.795 229.153 213.91 228.159C215.985 226.585 218.697 224.32 221.547 221.283C223.457 219.239 226.473 215.981 228.991 211.397C232.09 205.763 235.189 200.075 233.197 196.154C230.07 189.996 215.183 189.719 204.751 195.104Z" fill="white"/>
<path opacity="0.18" d="M229.544 198.114C227.967 201.759 225.366 206.923 221.215 212.446C215.183 220.427 209.095 224.845 199.908 231.39C173.925 249.891 166.952 254.116 167.727 255.884C168.778 258.286 183.416 253.978 185.547 253.343C201.098 248.759 212.554 241.69 219.721 236.526C217.895 233.737 216.068 230.948 214.242 228.186C216.483 226.585 219.583 224.044 222.488 220.261C224.093 218.19 226.528 214.987 228.105 210.154C229.71 205.349 229.766 201.069 229.544 198.114Z" fill="#9B9797"/>
<path d="M204.64 195.077C194.789 202.394 185.187 210.071 175.945 218.107C171.518 221.945 167.09 225.784 162.94 229.898C159.259 233.543 155.828 237.575 153.753 242.38C151.594 247.351 150.986 253.094 151.511 258.479C151.954 262.925 153.587 267.399 157.654 269.718C161.916 272.121 167.284 271.872 171.988 271.375C177.771 270.795 183.472 269.387 188.867 267.205C200.904 262.318 210.34 253.177 221.713 247.13C222.184 246.881 221.769 246.163 221.298 246.412C211.807 251.465 203.727 258.755 194.208 263.809C189.227 266.46 183.859 268.393 178.325 269.58C173.206 270.657 167.45 271.486 162.248 270.491C159.813 270.022 157.461 269.028 155.717 267.205C154.029 265.41 153.116 263.063 152.646 260.661C151.622 255.442 152.092 249.532 153.808 244.506C155.524 239.481 158.872 235.256 162.524 231.5C166.315 227.606 170.466 224.017 174.534 220.454C184.357 211.839 194.54 203.61 205.055 195.822C205.47 195.491 205.083 194.773 204.64 195.077Z" fill="black"/>
<path d="M177.522 251.686C186.598 248.179 194.817 242.932 202.62 237.189C206.466 234.372 210.257 231.445 214.02 228.518C217.728 225.618 221.27 222.553 224.148 218.825C224.48 218.411 223.761 217.997 223.429 218.411C220.496 222.222 216.815 225.287 213.052 228.242C209.344 231.141 205.608 234.013 201.79 236.802C194.153 242.38 186.156 247.516 177.301 250.913C176.803 251.079 177.024 251.879 177.522 251.686Z" fill="black"/>
<path d="M213.605 228.435C218.946 232.909 221.768 239.84 221.021 246.771C220.966 247.296 221.796 247.296 221.851 246.771C222.598 239.646 219.665 232.467 214.186 227.855C213.799 227.496 213.218 228.076 213.605 228.435Z" fill="black"/>
<path d="M220.966 239.066C222.543 238.597 223.927 237.271 225.255 236.332C226.915 235.172 228.548 234.013 230.208 232.853C230.651 232.549 230.236 231.831 229.793 232.135C228.299 233.184 226.777 234.261 225.283 235.311C223.899 236.277 222.377 237.768 220.744 238.265C220.219 238.403 220.44 239.204 220.966 239.066Z" fill="black"/>
<path d="M216.4 230.837C219.527 229.539 222.405 227.772 225.006 225.59C225.421 225.231 224.812 224.651 224.425 225.01C221.962 227.109 219.195 228.794 216.207 230.036C215.709 230.257 215.93 231.058 216.4 230.837Z" fill="black"/>
<path d="M224.701 225.232C225.227 225.232 225.227 224.403 224.701 224.403C224.176 224.403 224.176 225.232 224.701 225.232Z" fill="black"/>
<path d="M225.698 224.237C226.168 223.133 226.666 221.918 227.552 221.062C228.741 219.902 230.18 220.068 231.702 220.399C234.525 221.034 237.292 221.918 240.059 222.719C242.632 223.437 245.206 224.072 247.862 224.375C249.412 224.541 250.712 224.734 252.096 225.425C253.12 225.922 254.005 226.419 255.14 226.529C255.666 226.585 255.666 225.756 255.14 225.701C253.618 225.563 252.428 224.514 250.989 224.044C249.55 223.575 247.945 223.602 246.451 223.354C243.186 222.829 240.004 221.835 236.849 220.896C235.3 220.454 233.75 220.012 232.173 219.653C231.01 219.405 229.793 219.101 228.631 219.46C226.611 220.068 225.642 222.222 224.895 224.016C224.701 224.514 225.504 224.734 225.698 224.237Z" fill="black"/>
<path d="M230.098 233.46C236.019 232.577 241.886 232.439 247.863 232.328C249.938 232.301 252.152 232.052 253.812 230.699C255.223 229.539 256.026 227.855 255.638 226.06C255.527 225.535 254.725 225.756 254.836 226.281C255.361 228.794 253.092 230.644 250.851 231.196C248.554 231.748 246.064 231.472 243.712 231.527C239.063 231.61 234.47 231.997 229.876 232.687C229.351 232.742 229.6 233.543 230.098 233.46Z" fill="black"/>
<path d="M251.1 227.965C253.148 226.502 255.223 225.038 257.271 223.575C257.409 222.636 257.852 220.592 259.54 218.852C260.038 218.328 261.2 217.113 262.943 216.781C264.77 216.422 266.181 217.251 267.758 217.969C270.304 219.129 272.767 219.57 277.637 220.509C281.483 221.227 283.42 221.586 286.187 221.448C289.95 221.227 292.635 220.233 294.24 221.807C294.406 221.973 295.097 222.718 295.042 223.63C294.959 224.79 293.714 225.535 292.718 226.115C288.373 228.6 285.938 229.318 285.938 229.318C279.795 231.113 276.696 232.024 274.04 232.245C271.881 232.411 268.81 232.494 265.102 231.914C264.023 235.614 260.757 237.989 257.686 237.796C253.729 237.547 250.076 233.101 251.1 227.965Z" fill="black"/>
<path d="M211.364 203.554C211.973 201.704 213.107 199.357 215.238 198.584C216.621 198.087 217.894 198.418 218.309 198.528C220.883 199.164 226.168 198.252 236.711 196.457C241.941 195.574 248.554 194.276 256.164 192.343C256.191 193.751 256.164 195.601 256.081 197.755C255.887 202.588 255.389 206.233 255.278 207.089C254.808 210.513 253.978 216.202 251.459 223.105C250.823 224.873 250.187 226.336 249.744 227.33C250.823 227.827 251.985 228.49 253.12 229.429C257.796 233.157 259.152 238.431 259.595 240.668C258.931 241.469 257.935 242.656 256.662 244.009C251.515 249.477 246.755 252.542 237.679 258.148C232.09 261.6 227.994 264.113 221.436 267.979C213.467 272.673 207.02 276.318 198.995 278.61C197.003 279.19 193.848 279.963 189.863 279.549C187.926 279.356 184.44 278.997 181.092 276.567C176.803 273.474 175.447 268.945 174.893 266.957C173.648 262.511 174.118 258.341 175.281 254.006C176.083 250.968 178.989 240.889 189.089 229.539C191.109 227.275 196.864 222.166 208.32 211.949C211.087 209.491 213.356 207.475 214.878 206.15C213.716 205.266 212.554 204.41 211.364 203.554Z" fill="white"/>
<path opacity="0.18" d="M248.997 195.905C248.36 198.335 247.337 201.842 245.787 205.957C231.647 243.347 200.046 259.501 202.62 263.533C204.502 266.515 222.543 259.087 235.549 251.272C245.289 245.418 252.539 239.149 257.381 234.427C256.606 233.295 255.417 231.749 253.618 230.285C251.875 228.877 250.214 228.021 248.969 227.496C249.827 226.253 250.962 224.376 251.93 221.973C252.566 220.427 253.12 218.77 253.839 215.401C255.002 210.071 255.472 205.846 255.61 204.521C255.942 201.345 256.247 197.231 256.191 192.371C253.784 193.53 251.404 194.718 248.997 195.905Z" fill="#9B9797"/>
<path d="M255.776 192.343C255.804 197.562 255.472 202.781 254.753 207.973C254.088 212.639 253.258 217.444 251.543 221.863C249.689 226.64 246.506 230.119 242.66 233.405C238.731 236.747 234.774 240.033 230.817 243.319C226.279 247.102 221.713 250.858 217.175 254.641C216.76 254.972 217.341 255.552 217.756 255.221C226.085 248.317 234.414 241.441 242.688 234.455C246.34 231.362 249.661 228.159 251.653 223.713C253.59 219.405 254.531 214.683 255.278 210.044C256.219 204.189 256.662 198.28 256.606 192.343C256.606 191.791 255.776 191.791 255.776 192.343Z" fill="black"/>
<path d="M211.835 204.328C212.969 204.935 214.104 205.543 215.266 206.15C215.736 206.399 216.152 205.681 215.681 205.432C214.547 204.825 213.412 204.217 212.25 203.61C211.78 203.361 211.364 204.079 211.835 204.328Z" fill="black"/>
<path d="M215.266 205.819C205.415 213.827 195.066 221.752 186.848 231.473C179.764 239.84 173.925 250.444 173.953 261.683C173.953 266.626 175.309 271.79 178.961 275.297C182.614 278.831 187.899 280.212 192.88 279.964C198.967 279.66 204.751 277.257 210.174 274.606C215.985 271.762 221.492 268.393 227.026 265.052C238.427 258.148 251.155 251.714 259.706 241.193C260.038 240.779 259.457 240.199 259.125 240.613C251.958 249.45 241.885 255.111 232.284 260.91C226.998 264.113 221.769 267.371 216.373 270.409C211.087 273.391 205.581 276.236 199.742 277.92C194.263 279.494 188.148 279.825 182.974 277.092C177.993 274.496 175.447 269.47 174.921 264.002C173.897 252.957 179.459 241.966 186.183 233.571C194.568 223.106 205.526 214.766 215.875 206.371C216.262 206.067 215.681 205.488 215.266 205.819Z" fill="black"/>
<path d="M249.55 227.662C254.753 230.147 258.377 235.062 259.235 240.751C259.318 241.275 260.121 241.054 260.038 240.53C259.18 234.648 255.361 229.484 249.993 226.944C249.495 226.723 249.08 227.441 249.55 227.662Z" fill="black"/>
<path d="M251.211 228.38C252.318 227.938 253.203 227.192 254.144 226.474C255.251 225.618 256.385 224.79 257.492 223.934C257.907 223.602 257.492 222.884 257.077 223.216C256.081 223.961 255.085 224.707 254.089 225.48C253.12 226.226 252.152 227.137 250.989 227.579C250.519 227.772 250.713 228.573 251.211 228.38Z" fill="black"/>
<path d="M257.907 223.602C258.46 221.973 259.125 220.372 260.01 218.88C261.228 216.837 263.054 217.058 265.101 217.582C268.284 218.383 271.328 219.598 274.537 220.316C280.763 221.697 287.155 222.166 293.52 221.752C294.046 221.725 294.046 220.896 293.52 220.924C286.021 221.421 278.467 220.648 271.217 218.604C269.474 218.107 267.786 217.472 266.042 216.975C264.714 216.588 263.137 216.147 261.753 216.423C260.508 216.671 259.789 217.61 259.18 218.659C258.322 220.151 257.658 221.752 257.105 223.382C256.938 223.879 257.741 224.099 257.907 223.602Z" fill="black"/>
<path d="M259.097 236.94C261.173 235.366 263.22 233.792 265.296 232.218C265.711 231.886 265.296 231.168 264.881 231.5C262.805 233.074 260.758 234.648 258.682 236.222C258.267 236.553 258.682 237.271 259.097 236.94Z" fill="black"/>
<path d="M265.268 232.025C272.02 233.489 278.91 232.384 285.302 229.954C288.207 228.849 291.528 227.607 294.018 225.729C295.761 224.431 296.01 221.946 293.714 221.062C293.216 220.869 292.994 221.67 293.492 221.863C294.738 222.332 294.876 223.685 294.018 224.624C293.603 225.094 293.022 225.398 292.468 225.729C291.334 226.364 290.172 226.944 289.01 227.496C286.547 228.656 284.001 229.65 281.372 230.423C276.198 231.915 270.774 232.412 265.461 231.252C264.963 231.114 264.742 231.915 265.268 232.025Z" fill="black"/>
<path d="M193.156 112.759C197.362 109.279 203.644 105.082 212.028 102.597C215.957 101.437 220.883 100.001 227.413 100.553C237.43 101.409 244.32 106.325 246.756 108.119C250.574 110.909 253.175 113.863 254.78 115.934C255.085 135.292 255.5 154.677 256.025 174.035C256.191 180 256.357 185.992 256.551 191.957C252.622 194.387 247.115 197.121 240.142 198.722C223.816 202.45 210.23 197.48 204.723 195.077C204.695 190.189 204.391 182.844 202.897 174.035C200.462 159.565 196.671 153.738 194.291 141.284C193.101 134.85 191.967 125.185 193.156 112.759Z" fill="#39015A"/>
<path d="M243.186 117.536C241.83 119.027 241.581 120.711 241.664 127.173C241.719 133.966 242.079 138.606 242.301 143.99C242.467 147.884 242.605 150.977 242.522 155.009C242.439 160.09 242.107 164.259 241.802 167.048C239.091 170.086 236.683 172.461 234.885 174.173C230.845 178.011 226.445 182.153 219.942 186.047C217.369 187.566 215.155 188.67 213.661 189.361C212.305 189.14 210.783 188.808 209.123 188.394C205.193 187.4 203.561 186.516 200.6 186.516C199.715 186.516 196.92 186.516 196.643 187.511C196.394 188.339 197.944 189.637 199.161 190.272C200.296 190.852 200.794 190.686 201.928 191.211C203.201 191.818 204.031 192.702 204.529 193.365C204.004 194.11 203.201 195.243 202.316 196.706C201.292 198.418 201.07 199.081 199.881 201.124C198.635 203.278 197.999 204.355 197.446 204.908C196.588 205.708 196.062 205.874 192.216 207.586C188.397 209.298 187.733 209.685 187.733 210.154C187.733 210.624 188.48 210.734 191.441 212.005C193.848 213.026 194.07 213.247 195.315 213.606C196.864 214.048 197.805 214.324 198.94 214.076C200.738 213.717 201.901 212.364 202.399 211.646C202.648 211.866 203.256 212.336 204.059 212.364C204.695 212.364 205.221 212.115 205.636 211.784C207.379 210.541 208.237 208.249 209.953 205.681C210.257 205.239 211.336 203.61 213.08 201.787C214.159 200.627 215.155 199.771 215.875 199.191C216.843 198.971 218.282 198.639 219.998 198.142C226.666 196.237 231.481 193.945 235.521 192.012C237.873 190.88 240.53 189.388 245.815 186.434C250.408 183.866 252.788 182.43 254.891 179.613C255.112 179.309 256.247 177.79 257.243 175.554C257.547 174.863 258.627 172.406 259.208 168.098C259.484 166.192 259.484 165.143 259.512 159.178C259.567 151.584 259.567 152.496 259.567 151.722C259.54 140.594 258.959 141.588 258.765 131.371C258.737 130.404 258.71 127.781 257.907 124.467C257.049 120.877 255.97 119.276 255.361 118.475C254.587 117.453 253.646 116.238 252.041 115.548C249.108 114.25 245.206 115.299 243.186 117.536Z" fill="white"/>
<path opacity="0.25" d="M252.068 115.52C252.732 117.701 253.535 120.849 254.088 124.66C254.752 129.271 255.001 134.353 253.507 147.635C252.262 158.736 251.653 164.286 250.048 169.478C247.751 176.879 246.091 182.263 241.027 186.516C237.762 189.25 234.193 190.52 227.026 193.033C221.768 194.883 217.258 195.988 214.159 196.678C211.945 199.66 208.652 203.444 203.976 207.034C200.323 209.85 196.809 211.783 193.903 213.109C194.318 213.385 196.034 214.489 198.358 214.186C201.07 213.827 202.537 211.894 202.786 211.535C203.312 211.921 204.086 212.335 204.944 212.197C206.715 211.921 207.656 209.408 208.126 208.276C209.15 205.929 211.198 202.698 215.791 199.163C218.835 198.363 222.958 197.148 227.745 195.325C234.414 192.757 238.897 190.272 243.711 187.593C251.432 183.285 253.175 181.518 254.448 179.806C256.772 176.685 257.741 173.482 258.156 172.074C258.903 169.561 259.041 166.744 259.318 161.249C259.512 157.162 259.512 154.014 259.512 151.639C259.512 147.552 259.429 144.515 259.346 141.891C259.235 138.08 259.014 133.607 258.46 128.25C258.045 124.356 257.741 122.81 256.855 121.07C255.499 118.309 253.479 116.541 252.068 115.52Z" fill="#9B9797"/>
<path d="M242.771 117.425C241.332 121.015 241.166 124.881 241.249 128.719C241.332 132.944 241.553 137.142 241.747 141.367C242.134 149.927 242.411 158.515 241.387 167.048C241.332 167.573 242.162 167.573 242.217 167.048C243.214 158.709 242.992 150.286 242.605 141.919C242.411 137.777 242.19 133.635 242.079 129.465C241.968 125.461 242.051 121.429 243.573 117.646C243.767 117.149 242.965 116.928 242.771 117.425Z" fill="black"/>
<path d="M242.992 166.33C240.446 167.738 238.399 169.782 236.434 171.908C234.303 174.2 232.173 176.437 229.793 178.48C224.923 182.705 219.444 186.185 213.578 188.891C213.08 189.112 213.522 189.83 213.993 189.609C219.638 187.013 224.923 183.699 229.655 179.695C232.007 177.735 234.165 175.581 236.24 173.344C238.399 170.997 240.557 168.622 243.379 167.076C243.878 166.772 243.463 166.054 242.992 166.33Z" fill="black"/>
<path d="M213.771 188.946C210.728 188.311 207.656 187.649 204.612 186.958C203.09 186.627 201.541 186.213 199.991 185.937C199.023 185.771 197.999 185.688 197.141 186.24C195.813 187.096 195.813 188.67 197.003 189.609C197.861 190.3 198.967 190.603 199.991 190.935C201.652 191.459 203.063 192.122 204.142 193.53C204.474 193.945 205.193 193.53 204.861 193.116C203.893 191.874 202.731 190.99 201.236 190.465C200.213 190.106 199.078 189.885 198.137 189.361C197.473 189.002 196.615 188.449 197.113 187.455C197.584 186.516 198.774 186.599 199.632 186.737C201.928 187.069 204.225 187.731 206.522 188.256C208.874 188.781 211.226 189.278 213.578 189.775C214.076 189.858 214.297 189.057 213.771 188.946Z" fill="black"/>
<path d="M203.478 193.669C202.26 195.905 201.015 198.114 199.797 200.351C199.189 201.428 198.663 202.588 197.943 203.637C197.196 204.714 196.2 205.267 195.038 205.819C192.852 206.841 190.5 207.669 188.397 208.856C187.456 209.409 186.847 210.403 187.65 211.369C188.646 212.557 190.61 212.087 191.939 211.866C193.765 211.563 195.508 210.955 197.169 210.182C200.627 208.525 203.561 205.929 205.664 202.726C205.968 202.284 205.249 201.87 204.944 202.312C203.09 205.184 200.517 207.503 197.501 209.105C196.062 209.851 194.512 210.458 192.935 210.817C192.049 211.038 191.109 211.231 190.168 211.259C189.31 211.314 189.089 211.425 188.673 210.569C188.148 210.071 188.203 209.74 188.812 209.574C189.006 209.492 189.172 209.409 189.365 209.326C191.136 208.497 192.935 207.697 194.706 206.868C196.089 206.233 197.445 205.681 198.386 204.438C199.493 202.975 200.268 201.235 201.153 199.633C202.177 197.783 203.201 195.933 204.197 194.11C204.446 193.613 203.727 193.199 203.478 193.669Z" fill="black"/>
<path d="M216.123 199.716C223.511 197.645 230.678 194.883 237.541 191.459C240.944 189.747 244.265 187.897 247.502 185.853C250.408 184.031 253.479 182.181 255.555 179.392C255.859 178.95 255.14 178.536 254.835 178.977C252.677 181.905 249.301 183.81 246.257 185.688C243.158 187.593 239.948 189.36 236.683 190.99C230.014 194.276 223.069 196.927 215.902 198.943C215.404 199.053 215.625 199.854 216.123 199.716Z" fill="black"/>
<path d="M243.324 118.171C245.621 113.67 251.515 114.691 254.42 117.895C257.907 121.761 258.073 127.422 258.46 132.337C259.29 143.079 259.456 153.904 258.792 164.646C258.46 169.865 257.685 175.388 254.199 179.53C253.867 179.944 254.448 180.524 254.78 180.11C257.907 176.354 258.986 171.605 259.429 166.855C260.01 160.78 260.01 154.622 259.954 148.519C259.899 142.14 259.595 135.734 259.014 129.382C258.571 124.605 257.713 119.331 253.756 116.155C250.38 113.449 244.735 113.532 242.577 117.757C242.356 118.226 243.075 118.64 243.324 118.171Z" fill="black"/>
<path d="M191.191 212.336C193.211 213.247 195.647 214.628 197.943 214.628C200.157 214.6 201.79 212.778 203.284 211.397C207.573 207.42 211.862 203.444 216.151 199.495C216.538 199.136 215.957 198.556 215.57 198.915C211.945 202.284 208.32 205.625 204.695 208.994C203.09 210.458 201.43 212.557 199.41 213.468C197.03 214.545 193.765 212.612 191.634 211.645C191.136 211.397 190.721 212.115 191.191 212.336Z" fill="black"/>
<path d="M202.454 211.756C203.367 213.468 205.387 212.778 206.411 211.59C208.431 209.215 210.008 206.344 211.724 203.775C212.028 203.334 211.309 202.919 211.004 203.361C209.925 204.963 208.846 206.565 207.767 208.166C207.158 209.05 204.474 213.827 203.173 211.342C202.924 210.872 202.205 211.287 202.454 211.756Z" fill="black"/>
<path d="M196.034 210.403C196.864 210.845 197.888 211.287 198.801 210.845C199.272 210.596 199.465 210.21 199.687 209.768C200.074 209.022 200.461 208.442 201.181 207.973C201.624 207.669 201.209 206.951 200.766 207.255C200.102 207.697 199.548 208.249 199.161 208.967C198.884 209.492 198.718 210.127 197.999 210.182C197.473 210.237 196.892 209.906 196.449 209.685C196.006 209.464 195.564 210.155 196.034 210.403Z" fill="black"/>
<path d="M190.362 52.614C189.393 54.5746 188.425 57.8607 188.12 58.9376C187.677 60.484 186.681 64.1015 186.128 68.9064C185.823 71.5574 185.491 74.4569 185.768 78.2953C185.906 80.1179 186.1 82.9898 187.179 86.552C187.899 88.9821 188.95 92.4891 191.8 96.079C194.291 99.1994 197.141 101.16 199.41 102.347C200.849 102.375 202.592 102.292 204.529 101.933C208.016 101.27 210.728 99.9726 212.554 98.9233C212.803 100.332 213.135 101.823 213.55 103.369C214.408 106.572 215.459 109.389 216.511 111.819C217.645 111.626 219.001 111.294 220.44 110.632C225.006 108.505 227.192 104.584 227.967 102.955C227.552 101.353 227.22 99.6136 226.915 97.8187C225.864 91.1084 226.14 85.1161 226.805 80.2559C227.386 80.4492 228.326 80.6978 229.489 80.6425C231.758 80.5045 233.307 79.2618 234.082 78.5991C234.746 78.0468 237.762 75.3682 237.652 71.3917C237.624 70.4528 237.569 68.1608 235.936 66.9182C234.414 65.786 232.366 66.2002 230.872 66.504C229.157 66.863 227.884 67.5809 227.109 68.078C227.69 66.1726 228.908 61.2849 227.109 55.5963C226.722 54.3813 224.148 46.6492 216.566 43.3079C206.273 38.7239 193.903 45.5171 190.362 52.614Z" fill="white"/>
<path opacity="0.24" d="M221.63 52.7797C221.852 55.3478 222.018 59.0757 221.63 63.494C220.44 76.887 215.128 86.193 213.744 88.5127C211.641 92.0473 208.044 97.1836 202.288 102.237C204.004 102.016 205.968 101.629 208.071 100.884C213.855 98.8404 217.729 95.3334 219.832 93.0414C219.998 96.1066 220.523 99.8345 221.769 103.921C222.322 105.661 222.931 107.263 223.567 108.699C225.034 106.793 226.473 104.888 227.939 102.955C227.635 101.16 227.358 99.2546 227.164 97.294C226.528 91.3569 226.528 85.8893 226.86 81.0292C228.105 81.0568 229.904 80.9463 231.813 80.2007C240.17 76.887 244.929 63.7149 240.419 56.5352C240.225 56.2314 239.229 54.685 237.181 53.3043C230.845 49.0517 222.792 52.2826 221.63 52.7797Z" fill="#9B9797"/>
<path d="M188.342 58.1094C187.788 56.204 187.013 52.5589 187.816 48.0854C188.065 46.7047 188.923 42.2587 191.967 38.7517C196.422 33.6431 202.011 34.6096 209.261 32.0138C213.854 30.3846 220.163 26.9604 226.556 18.897C225.974 21.8793 225.393 24.8893 224.812 27.8717C225.808 28.1478 229.157 28.8658 232.588 27.1813C238.288 24.3922 238.786 17.6543 238.814 17.3506C239.506 18.897 240.751 22.3212 240.197 26.6842C239.81 29.6666 238.731 31.9034 237.956 33.2565C238.288 33.6154 240.059 35.438 242.107 35.1619C244.597 34.8305 246.922 31.4339 246.257 27.0432C246.811 28.6725 247.475 31.3511 247.309 34.6372C247.088 38.6413 245.759 41.6512 244.874 43.2805C245.095 43.4738 246.506 44.744 248.499 44.4955C250.242 44.2746 251.736 43.0043 252.317 41.2094C252.179 43.0596 251.847 45.7382 250.768 48.8034C249.301 52.9455 248.084 53.2769 247.475 56.2316C246.506 60.8708 248.997 62.4449 248.333 66.587C247.779 70.0664 245.51 72.248 242.633 75.037C237.403 80.0904 231.398 82.8243 226.362 84.343C226.583 82.7966 226.832 81.2502 227.054 79.7038C227.69 80.0904 228.797 80.6151 230.18 80.5599C233.003 80.4494 234.774 77.9365 235.715 76.5834C236.794 75.0646 238.593 72.4689 237.624 69.6798C236.822 67.4154 234.691 66.4766 234.497 66.3937C232.007 65.3444 228.797 66.2832 226.722 68.8238C225.559 64.2674 224.425 59.7386 223.263 55.1823C219.333 52.697 215.432 50.2393 211.502 47.754C209.565 47.395 204.28 46.677 198.359 49.3004C192.382 51.9514 189.338 56.4525 188.342 58.1094Z" fill="#131314"/>
<path d="M187.927 57.9989C185.575 66.7803 184.163 76.114 186.322 85.0886C188.093 92.3788 192.575 100.691 200.213 103.066C200.711 103.231 200.932 102.43 200.434 102.265C192.769 99.8899 188.48 91.2466 186.903 83.9564C185.049 75.396 186.46 66.5594 188.701 58.2198C188.867 57.7228 188.065 57.5019 187.927 57.9989Z" fill="black"/>
<path d="M200.821 102.927C213.578 101.629 224.231 92.4338 227.22 79.9521C227.33 79.4274 226.555 79.2065 226.417 79.7312C223.512 91.7986 213.246 100.829 200.821 102.099C200.296 102.154 200.268 102.982 200.821 102.927Z" fill="black"/>
<path d="M226.5 80.1733C232.201 83.6527 237.762 76.3625 238.122 71.2538C238.316 68.5476 237.071 66.4766 234.387 65.7033C231.896 64.9854 229.184 65.731 227.413 67.6087C227.054 67.9953 227.635 68.5752 227.995 68.1886C229.461 66.6146 231.675 65.9243 233.806 66.3937C234.912 66.6422 236.13 67.2498 236.766 68.2439C237.458 69.3208 237.375 70.812 237.209 71.9994C236.545 76.2796 231.786 82.41 226.915 79.4277C226.473 79.1792 226.03 79.8971 226.5 80.1733Z" fill="black"/>
<path d="M226.445 80.1179C225.366 87.7671 225.753 95.5267 227.58 103.038C227.718 103.562 228.52 103.342 228.382 102.817C226.583 95.4439 226.196 87.8223 227.248 80.3388C227.303 79.8141 226.5 79.5932 226.445 80.1179Z" fill="black"/>
<path d="M212.139 99.0341C212.997 103.508 214.325 107.843 216.151 112.04C216.373 112.538 217.092 112.096 216.871 111.626C215.072 107.512 213.772 103.231 212.941 98.8132C212.831 98.2885 212.056 98.5094 212.139 99.0341Z" fill="black"/>
<path d="M216.732 112.151C222.073 111.295 226.583 107.622 228.603 102.624C228.797 102.127 227.995 101.906 227.801 102.403C225.892 107.152 221.547 110.549 216.511 111.35C215.985 111.433 216.207 112.233 216.732 112.151Z" fill="black"/>
<path d="M212.803 100.001C213.938 100.056 214.712 99.2825 215.57 98.6198C216.705 97.7361 217.784 96.7972 218.78 95.8031C220.634 93.953 222.128 91.8267 223.097 89.3966C223.29 88.8995 222.488 88.6786 222.294 89.1757C221.436 91.3296 220.108 93.235 218.503 94.8919C217.784 95.6651 217.009 96.3554 216.207 97.0458C215.321 97.7914 214.048 99.2273 212.803 99.1721C212.277 99.1445 212.277 99.9729 212.803 100.001Z" fill="black"/>
<path d="M212.858 99.5588C215.21 98.04 217.396 96.3003 219.444 94.395C219.831 94.036 219.25 93.4285 218.863 93.8151C216.871 95.6928 214.74 97.3773 212.443 98.8685C211.973 99.117 212.416 99.835 212.858 99.5588Z" fill="black"/>
<path d="M196.588 59.6005C195.038 66.6422 194.153 73.7943 193.959 81.0017C193.959 81.4159 194.512 81.554 194.734 81.2226C195.813 79.5105 196.892 77.7708 197.971 76.0587C198.248 75.6169 197.529 75.175 197.252 75.6445C196.173 77.3566 195.094 79.0963 194.014 80.8084C194.263 80.8912 194.54 80.9464 194.789 81.0293C194.983 73.9048 195.868 66.8079 197.39 59.849C197.501 59.2968 196.698 59.0758 196.588 59.6005Z" fill="black"/>
<path d="M197.695 91.3847C197.031 90.142 196.588 88.8165 196.477 87.4082C196.394 86.4141 196.615 82.3824 198.497 83.984C199.493 84.8401 199.355 86.7178 199.383 87.9605C199.383 88.5404 199.383 89.1479 199.327 89.7278C199.3 90.142 199.244 90.5562 199.161 90.9428C198.442 91.4399 197.888 91.4123 197.529 90.8876C197.169 90.501 196.56 91.0809 196.948 91.4675C198.137 92.6825 199.687 92.7378 200.019 90.8324C200.268 89.4793 200.268 88.0433 200.157 86.6902C200.074 85.6133 200.074 84.0668 199.272 83.2384C198.082 82.0234 196.394 83.1556 195.924 84.4534C195.066 86.7731 195.896 89.7002 197.003 91.7989C197.224 92.2683 197.944 91.8541 197.695 91.3847Z" fill="black"/>
<path d="M203.423 66.5319C204.253 70.4256 209.372 70.7293 210.894 67.1395C211.087 66.6424 210.285 66.4215 210.091 66.9185C208.846 69.8457 204.861 69.2934 204.225 66.311C204.114 65.814 203.312 66.0073 203.423 66.5319Z" fill="black"/>
<path d="M201.79 56.9497C202.842 54.6025 205.553 53.4703 208.044 53.995C210.617 54.5472 212.582 56.5355 213.855 58.717C214.131 59.1865 214.851 58.7722 214.574 58.3028C213.108 55.7899 210.783 53.5531 207.795 53.1113C205.111 52.7247 202.233 53.995 201.071 56.5079C200.849 57.0325 201.569 57.4467 201.79 56.9497Z" fill="black"/>
<path d="M185.575 57.8611C186.322 56.3147 187.622 54.6302 189.532 54.6578C191.358 54.6855 192.686 56.2871 193.599 57.6954C193.876 58.1373 194.595 57.723 194.319 57.2812C193.267 55.5967 191.69 53.857 189.532 53.8294C187.318 53.8018 185.768 55.6244 184.883 57.4469C184.634 57.9163 185.353 58.3306 185.575 57.8611Z" fill="black"/>
<path d="M190.472 70.3701C190.961 70.3701 191.358 68.5527 191.358 66.3108C191.358 64.0689 190.961 62.2515 190.472 62.2515C189.983 62.2515 189.587 64.0689 189.587 66.3108C189.587 68.5527 189.983 70.3701 190.472 70.3701Z" fill="black"/>
<path d="M193.018 114.057C192.935 115.078 192.824 116.487 192.769 118.116C192.52 123.694 192.741 127.919 192.824 129.051C193.045 132.724 193.543 137.529 194.706 143.107C193.599 144.377 191.939 146.255 189.808 148.464C185.768 152.689 183.693 154.843 180.372 157.08C176.664 159.565 174.091 160.338 172.707 160.697C170.964 161.112 169.303 161.498 167.284 161.056C163.991 160.311 162.026 157.881 161.307 156.942C159.48 154.622 159.065 152.358 158.318 147.939C157.765 144.709 157.654 142.251 157.488 137.501C157.405 135.237 157.294 132.475 157.35 128.775C157.405 124.605 157.626 119.662 158.235 114.139C158.512 111.654 158.899 108.589 159.508 105.11C159.037 104.447 158.539 103.784 158.014 103.094C157.46 102.376 156.934 101.685 156.381 100.995C154.97 102.182 153.586 103.398 152.175 104.585C151.815 104.723 151.179 104.944 150.404 104.861C148.937 104.723 148.08 103.701 147.775 103.37C146.419 101.823 146.613 99.8629 146.668 99.4763C148.578 97.4052 150.487 95.3617 152.424 93.2906C152.452 92.1032 152.618 90.5568 153.088 88.8447C153.448 87.5745 153.891 86.5251 154.306 85.6415C154.665 84.9235 155.164 84.1227 155.8 83.3219C156.934 81.8307 158.152 80.7813 159.148 80.0634C158.346 80.4224 158.152 80.4224 158.097 80.3671C157.958 80.1462 159.259 78.517 161.085 78.3513C162.109 78.2408 162.911 78.6274 163.465 78.876C164.323 79.2902 164.904 79.8148 165.264 80.2014C166.979 78.7379 168.695 77.2743 170.41 75.8384C171.019 76.1974 171.628 76.6116 172.237 77.0258C173.648 77.9923 174.921 78.9588 176.055 79.8977C175.64 80.4224 175.114 81.0023 174.45 81.5822C173.343 82.5487 172.237 83.1286 171.379 83.5152C171.905 83.6809 172.845 84.0675 173.316 84.9787C173.786 85.8624 173.593 86.8289 173.316 88.0439C173.122 88.8724 172.873 89.5351 172.679 89.9769C172.79 91.1367 172.845 92.7108 172.513 94.4781C171.988 97.3776 170.77 99.5315 169.94 100.774C169.912 101.851 169.885 103.536 169.94 105.607C170.161 114.139 171.407 119.138 172.209 125.434C172.679 129.024 173.15 134.353 173.011 141.063C173.648 140.649 174.561 139.987 175.585 139.13C178.186 136.949 179.846 134.767 182.032 131.564C184.191 128.444 185.602 126.124 187.511 123.031C188.701 121.015 190.61 117.95 193.018 114.057Z" fill="white"/>
<path opacity="0.24" d="M167.865 88.8442C167.283 90.1145 166.702 91.4124 166.121 92.7379C164.433 96.7143 163.05 100.525 161.915 104.17C161.666 109.914 161.528 114.719 161.417 118.198C161.279 123.473 161.611 129.769 162.22 142.361C162.469 147.552 162.69 150.7 165.125 152.992C167.671 155.367 171.213 155.422 173.205 155.422C183.831 155.395 191.772 146.365 193.959 143.742C190.998 148.767 187.622 152.054 185.325 153.987C182.724 156.168 179.376 158.902 174.174 160.255C169.774 161.415 167.782 161.166 167.256 161.056C163.465 160.145 161.362 156.997 160.615 155.92C158.816 153.241 158.235 150.452 157.903 144.46C157.571 138.302 157.931 136.672 158.041 128.195C158.124 120.104 157.82 117.812 158.429 112.206C158.788 108.92 159.231 106.214 159.591 104.391C158.512 103.259 157.433 102.127 156.353 101.022C155.44 101.823 154.499 102.596 153.559 103.397C152.95 103.922 152.313 104.446 151.705 104.943C151.151 104.999 150.349 104.971 149.491 104.612C147.277 103.673 145.894 100.939 146.585 100C147.028 99.3653 148.19 99.8624 149.795 99.8624C152.562 99.89 154.416 98.4817 158.097 95.8307C160.698 93.9253 163.686 91.799 167.865 88.8442Z" fill="#9B9797"/>
<path d="M192.658 113.836C186.266 122.645 181.534 132.751 173.454 140.263C173.067 140.622 173.648 141.201 174.036 140.842C182.171 133.276 186.93 123.114 193.378 114.25C193.71 113.836 192.99 113.421 192.658 113.836Z" fill="black"/>
<path d="M168.861 161.691C179.818 160.974 187.677 151.806 194.263 144.018C194.595 143.604 194.014 143.024 193.682 143.438C187.29 151.06 179.542 160.173 168.888 160.891C168.335 160.891 168.335 161.719 168.861 161.691Z" fill="black"/>
<path d="M163.659 83.9018C163.714 86.0833 165.153 87.9611 167.256 88.5686C167.782 88.7067 168.003 87.9059 167.478 87.7678C165.734 87.2707 164.544 85.6967 164.489 83.9018C164.461 83.3771 163.631 83.3771 163.659 83.9018Z" fill="black"/>
<path d="M164.516 83.6532C164.793 81.2507 169.082 82.9904 170.244 83.5979C171.379 84.1778 172.513 84.7577 172.762 86.1385C172.956 87.1878 172.624 88.2924 172.347 89.3141C172.209 89.8388 173.011 90.0597 173.15 89.535C173.537 88.1543 173.952 86.5803 173.371 85.2272C172.818 83.8465 171.296 83.2113 170.051 82.6038C168.778 81.9963 167.394 81.5545 165.955 81.7202C165.374 81.803 164.627 81.9411 164.157 82.3277C163.659 82.7143 163.769 82.9904 163.686 83.6808C163.631 84.1778 164.461 84.1778 164.516 83.6532Z" fill="black"/>
<path d="M172.071 89.1481C171.988 91.2468 172.458 93.2903 171.96 95.3889C171.489 97.3219 170.549 99.1169 169.608 100.857C169.359 101.326 170.078 101.74 170.327 101.271C171.296 99.4482 172.264 97.5981 172.762 95.6099C173.288 93.4559 172.818 91.3296 172.901 89.1481C172.928 88.5958 172.098 88.5958 172.071 89.1481Z" fill="black"/>
<path d="M169.608 100.884C168.972 115.437 173.15 129.686 172.486 144.239C172.458 144.764 173.288 144.764 173.316 144.239C173.98 129.686 169.802 115.437 170.438 100.884C170.466 100.36 169.636 100.36 169.608 100.884Z" fill="black"/>
<path d="M156.022 101.188C156.852 102.348 157.737 103.452 158.733 104.474C159.093 104.861 159.674 104.281 159.314 103.894C158.374 102.9 157.516 101.878 156.741 100.774C156.409 100.332 155.689 100.746 156.022 101.188Z" fill="black"/>
<path d="M159.204 104.253C157.626 113.228 156.851 122.341 156.879 131.453C156.907 135.982 157.128 140.539 157.571 145.04C157.931 148.878 158.373 152.91 160.393 156.279C162.22 159.344 165.43 161.664 169.082 161.581C169.608 161.553 169.608 160.725 169.082 160.752C163.963 160.89 160.67 156.334 159.48 151.86C158.152 146.945 158.041 141.588 157.848 136.535C157.433 125.82 158.18 115.051 160.034 104.502C160.089 103.95 159.287 103.729 159.204 104.253Z" fill="black"/>
<path d="M153.974 91.8543C151.373 94.0359 148.855 96.3278 146.475 98.7303C146.088 99.1169 146.696 99.6968 147.056 99.3102C149.463 96.9078 151.954 94.6157 154.555 92.4342C154.97 92.1028 154.389 91.5229 153.974 91.8543Z" fill="black"/>
<path d="M146.226 99.476C145.811 102.679 148.246 105.385 151.483 105.358C152.009 105.358 152.009 104.529 151.483 104.529C148.689 104.557 146.696 102.21 147.056 99.476C147.139 98.9514 146.309 98.9514 146.226 99.476Z" fill="black"/>
<path d="M147.001 99.283C149.906 99.3659 151.926 101.962 151.317 104.778C151.207 105.303 152.009 105.524 152.12 104.999C152.867 101.603 150.487 98.565 147.001 98.4546C146.475 98.4546 146.475 99.283 147.001 99.283Z" fill="black"/>
<path d="M152.452 104.861C155.606 101.989 158.816 99.1445 161.888 96.1898C163.299 94.8367 164.655 93.456 165.928 91.9648C166.619 91.164 168.363 89.59 168.39 88.4854C168.39 88.3473 168.307 88.1816 168.197 88.1264C168.141 88.0988 168.086 88.0712 168.058 88.0712C167.892 87.9883 167.671 87.9883 167.56 88.1264C167.533 88.154 167.505 88.1816 167.477 88.2369C167.145 88.6511 167.726 89.231 168.058 88.8168C168.086 88.7892 168.114 88.7615 168.141 88.7063C167.975 88.7339 167.809 88.7615 167.643 88.7615C167.588 88.513 167.505 88.513 167.394 88.7892C167.256 88.9825 167.117 89.1758 166.951 89.3691C166.619 89.7833 166.315 90.1975 165.955 90.6117C165.402 91.3021 164.793 91.9648 164.212 92.6276C162.994 93.953 161.722 95.1957 160.421 96.4107C157.599 99.0617 154.721 101.63 151.871 104.253C151.456 104.64 152.064 105.22 152.452 104.861Z" fill="black"/>
<path d="M152.811 93.401C153.005 92.0755 153.199 90.75 153.392 89.4245C153.531 88.4304 153.642 87.3258 154.195 86.4422C155.468 84.3987 157.266 85.8623 158.235 87.243C158.65 87.8229 159.037 88.458 159.452 89.0379C159.674 89.3693 160.753 90.5567 160.615 90.9709C160.753 90.8605 160.891 90.7776 161.002 90.6672C160.947 90.6672 160.919 90.6672 160.864 90.6672C160.338 90.6395 160.338 91.468 160.864 91.4956C160.919 91.4956 160.947 91.4956 161.002 91.4956C161.196 91.4956 161.362 91.3575 161.389 91.1918C161.583 90.5015 161.113 90.0873 160.753 89.535C160.061 88.5132 159.397 87.4639 158.678 86.4698C157.931 85.448 156.962 84.4539 155.579 84.592C154.25 84.7301 153.448 85.7518 153.033 86.9392C152.341 88.8998 152.286 91.1366 151.981 93.1801C151.926 93.7047 152.728 93.9256 152.811 93.401Z" fill="black"/>
<path d="M154.112 90.2803C154.859 91.7439 156.105 93.2351 157.875 93.3456C159.342 93.456 160.726 92.6276 161.113 91.1916C161.251 90.6669 160.449 90.446 160.311 90.9707C159.951 92.2962 158.484 92.7933 157.267 92.379C156.105 91.9648 155.357 90.9431 154.832 89.8937C154.583 89.3967 153.863 89.8109 154.112 90.2803Z" fill="black"/>
<path d="M155.136 84.8957C155.274 83.5426 156.824 83.1836 157.875 83.5426C158.982 83.9016 159.84 84.8957 160.615 85.6965C161.224 86.3317 162.414 87.2153 162.58 88.099C162.801 89.2864 161.307 90.0872 160.311 90.391C159.812 90.5291 160.006 91.3299 160.532 91.1918C161.749 90.8328 163.52 89.7559 163.714 88.3199C163.797 87.74 163.437 87.4363 163.05 87.022C162.275 86.1936 161.528 85.3928 160.726 84.592C159.646 83.4874 158.263 82.3 156.603 82.5761C155.357 82.7694 154.444 83.5979 154.306 84.8681C154.251 85.4204 155.081 85.4204 155.136 84.8957Z" fill="black"/>
<path d="M156.63 82.8522C157.018 82.4104 157.211 81.8304 157.571 81.3886C158.457 80.284 159.84 81.3058 160.753 81.9685C162.524 83.2112 164.406 85.4755 162.801 87.6295C162.497 88.0713 163.216 88.4855 163.52 88.0437C165.236 85.7241 163.548 83.0455 161.583 81.5543C160.67 80.8639 159.287 79.6213 158.042 79.9803C156.935 80.284 156.741 81.5543 156.049 82.2999C155.689 82.6589 156.271 83.2388 156.63 82.8522Z" fill="black"/>
<path d="M159.425 80.3394C160.393 79.152 161.666 77.9094 163.16 79.152C164.157 79.9528 164.793 81.085 165.153 82.2724C165.319 82.7695 166.094 82.5762 165.955 82.0515C165.485 80.4499 164.406 78.5997 162.801 77.937C161.168 77.2742 159.812 78.5721 158.844 79.7595C158.512 80.1461 159.093 80.7537 159.425 80.3394Z" fill="black"/>
<path d="M165.541 80.45C167.256 78.9864 168.972 77.5229 170.687 76.0869C171.102 75.7279 170.494 75.148 170.106 75.507C168.391 76.9706 166.675 78.4341 164.959 79.8701C164.544 80.2291 165.153 80.809 165.541 80.45Z" fill="black"/>
<path d="M171.656 83.9844C173.288 82.797 174.865 81.5267 176.332 80.146C176.719 79.787 176.138 79.2071 175.751 79.5661C174.312 80.8916 172.818 82.1342 171.241 83.2664C170.798 83.5702 171.213 84.2881 171.656 83.9844Z" fill="black"/>
<path d="M184.08 81.9133C193.311 81.9133 200.793 74.4458 200.793 65.2342C200.793 56.0227 193.311 48.5552 184.08 48.5552C174.85 48.5552 167.367 56.0227 167.367 65.2342C167.367 74.4458 174.85 81.9133 184.08 81.9133Z" stroke="#0A3871" stroke-width="3" stroke-miterlimit="10"/>
<path d="M173.952 67.2777C180.095 63.3565 186.377 59.6561 192.797 56.1767C193.267 55.9282 192.852 55.2102 192.381 55.4588C185.962 58.9106 179.68 62.6109 173.537 66.5597C173.095 66.8635 173.51 67.5815 173.952 67.2777Z" fill="black"/>
<path d="M174.644 74.5129C179.708 70.8125 184.827 67.2503 190.057 63.7709C190.5 63.4671 190.084 62.7491 189.642 63.0529C184.44 66.5323 179.293 70.1222 174.229 73.7949C173.786 74.0986 174.201 74.8166 174.644 74.5129Z" fill="black"/>
</g>
<defs>
<clipPath id="clip0_2_121">
<rect width="336" height="304" fill="white"/>
</clipPath>
</defs>
</svg>
